# xmcd
#
# Track frame offsets:
#	150
#	15234
#	34771
#	47371
#	68841
#	89931
#	105225
#	127790
#	147588
#	166315
#	184771
#	207862
#
# Disc length: 2947 seconds
# Revision: 0
# Processed by: cddbd v1.5.2PL0 Copyright (c) Steve Scherf et al.
# Submitted via: dBpowerAMP V12.0
#
DISCID=990b810c
DTITLE=Alex Smith - Hamilton County
DYEAR=2014
DGENRE=Country
TTITLE0=This Town
TTITLE1=What I Need To Do
TTITLE2=North County Girl
TTITLE3=Long Lake
TTITLE4=Hard Hands
TTITLE5=North Point Road
TTITLE6=Tahawus
TTITLE7=My Girl's Waiting For Me
TTITLE8=The Raquette River
TTITLE9=Adirondack Blues
TTITLE10=Maybe The Next Place We Land
TTITLE11=Hamilton County
EXTD=
EXTT0=
EXTT1=
EXTT2=
EXTT3=
EXTT4=
EXTT5=
EXTT6=
EXTT7=
EXTT8=
EXTT9=
EXTT10=
EXTT11=
PLAYORDER=
